<svg xmlns="http://www.w3.org/2000/svg" xmlns:xlink="http://www.w3.org/1999/xlink" id="Capa_1" width="512" height="512" x="0" y="0" style="enable-background:new 0 0 512 512" class="hovered-paths" version="1.1" viewBox="0 0 512 512" xml:space="preserve"><g><path style="fill:#fed42d" d="M507.681,209.011c-1.297-6.991-7.323-12.111-14.433-12.262c-7.135-0.11-13.346,4.713-14.936,11.643 c-15.26,66.497-73.643,112.94-141.979,112.94c-80.32,0-145.666-65.346-145.666-145.666c0-68.336,46.443-126.718,112.942-141.976 c6.93-1.59,11.791-7.826,11.643-14.934c-0.149-7.108-5.269-13.136-12.259-14.434C287.545,1.454,271.735,0,256,0 C187.62,0,123.332,26.629,74.98,74.981C26.629,123.333,0,187.62,0,256s26.629,132.667,74.98,181.019 C123.332,485.371,187.62,512,256,512s132.667-26.629,181.019-74.981S512,324.38,512,256 C512,240.278,510.547,224.469,507.681,209.011z" class="hovered-path" data-original="#FED42D"/><path style="fill:#fcbf29" d="M507.681,209.011c-1.297-6.991-7.323-12.111-14.433-12.262c-7.135-0.11-13.346,4.713-14.936,11.643 c-15.26,66.497-73.643,112.94-141.979,112.94c-40.16,0-76.576-16.336-102.952-42.712L74.98,437.02 C123.332,485.371,187.62,512,256,512s132.667-26.629,181.019-74.981S512,324.38,512,256 C512,240.278,510.547,224.469,507.681,209.011z" class="active-path" data-original="#FCBF29"/></g></svg>